<?xml version="1.0" encoding="utf-8"?>
<!-- Generator: Adobe Illustrator 25.2.1, SVG Export Plug-In . SVG Version: 6.00 Build 0)  -->
<svg version="1.1" id="Layer_1" xmlns="http://www.w3.org/2000/svg" xmlns:xlink="http://www.w3.org/1999/xlink" x="0px" y="0px"
	 viewBox="0 0 535.7 140.4" style="enable-background:new 0 0 535.7 140.4;" xml:space="preserve">
<style type="text/css">
	.st0{fill:#FFFFFF;}
	.st1{font-family:'NeutrafaceTextGreek-Book';}
	.st2{font-size:75.31px;}
</style>
<g id="Layer_2_1_">
	<g id="Layer_1-2">
		<path class="st0" d="M80.6,0.4c-12.2,0-20.7,6.3-25.5,19c-3.7,9-5.6,22.2-5.6,39.6c0,3.9,0.2,9.4,0.7,16.6c0.1,3.3,0.2,6,0.2,8.3
			v5.4c-4.7,0.1-9.3-0.7-13.8-2.2c-3.9-1.4-7.5-3.5-10.6-6.3c-3-2.8-5.4-6.2-6.9-10c-1.7-4.2-2.5-8.8-2.5-13.3
			c0-20.7,7.8-34.1,23.3-40.1c1.6-3.6,2.5-7.4,2.7-11.4c0-4-1.7-6-4.9-6C27.3,0,18.3,6.3,10.5,19C3.5,30.4,0,41.4,0,52
			c0,26.2,16.5,41.2,49.5,45c-0.2,2.5-0.9,8.1-2.2,16.6c-0.7,3.4-1.3,6.5-1.7,9.2c-0.4,2.4-0.5,4.8-0.6,7.2c0,7,3.5,10.5,10.5,10.5
			c5.7,0,8.5-3.6,8.5-10.8c-0.2-5.6-0.8-11.2-1.8-16.8c-1-7.3-1.6-12.7-1.8-16.1c16.7-1.3,30.1-6.2,40.1-14.6
			c11.2-9.4,16.8-22.2,16.8-38.3c0-11.3-3.2-21.2-9.6-29.6C100.7,5.1,91.7,0.5,80.6,0.4z M88.4,72.3c-6.9,9.3-16.2,15.1-28,17.5
			c-0.2-1.8-0.3-4-0.3-6.6C60,80.6,60,77.6,60,74.3v-2.6c0-1.3-0.1-2.9-0.2-4.8v-9.9c0-31.8,6.4-47.7,19.2-47.7
			c6.7,0,11.7,3.8,15,11.4c2.8,6.2,4.1,12.9,4,19.7C98.1,53.1,94.9,63.7,88.4,72.3z"/>
		<text transform="matrix(1 0 0 1 164.82 91.72)" class="st0 st1 st2">f</text>
		<text transform="matrix(1 0 0 1 188.02 91.72)" class="st0 st1 st2">ani b</text>
		<text transform="matrix(1 0 0 1 338.41 91.72)" class="st0 st1 st2">a</text>
		<text transform="matrix(1 0 0 1 373.51 91.72)" class="st0 st1 st2">tzaki</text>
	</g>
</g>
</svg>
