<?xml version="1.0" encoding="utf-8"?>
<!-- Generator: Adobe Illustrator 25.2.1, SVG Export Plug-In . SVG Version: 6.00 Build 0)  -->
<svg version="1.1" id="Layer_1" xmlns="http://www.w3.org/2000/svg" xmlns:xlink="http://www.w3.org/1999/xlink" x="0px" y="0px"
	 viewBox="0 0 393.4 63.7" style="enable-background:new 0 0 393.4 63.7;" xml:space="preserve">
<style type="text/css">
	.st0{fill:#FFFFFF;}
</style>
<g id="Layer_2_1_">
	<g id="Layer_1-2">
		<path class="st0" d="M36.6,0.2C31,0.2,27.2,3.1,25,8.8c-1.7,4.1-2.5,10.1-2.5,18c0,1.8,0.1,4.3,0.3,7.5c0.1,1.5,0.1,2.7,0.1,3.8
			v2.4c-2.1,0-4.2-0.3-6.2-1c-1.8-0.6-3.4-1.6-4.8-2.8c-1.4-1.2-2.5-2.8-3.1-4.5c-0.8-1.9-1.1-3.9-1.1-6c0-9.5,3.5-15.5,10.6-18.3
			c0.7-1.6,1.2-3.4,1.2-5.2c0-1.8-0.8-2.7-2.2-2.7C12.4,0,8.3,2.9,4.8,8.6C1.6,13.8,0,18.8,0,23.6C0,35.5,7.5,42.3,22.5,44
			c-0.1,1.2-0.4,3.7-1,7.5c-0.3,1.6-0.6,3-0.8,4.2c-0.2,1.1-0.2,2.2-0.2,3.2c0,3.2,1.6,4.8,4.8,4.8c2.6,0,3.9-1.6,3.9-4.9
			c-0.1-2.6-0.4-5.1-0.8-7.6c-0.5-3.3-0.7-5.8-0.8-7.3c7.6-0.6,13.6-2.8,18.2-6.6c5.1-4.3,7.6-10,7.6-17.4c0.1-4.8-1.4-9.6-4.4-13.4
			C46,2.5,41.4,0.1,36.6,0.2z M40.1,32.8c-3.1,4.2-7.6,7-12.7,7.9c-0.1-0.8-0.1-1.8-0.1-3s0-2.5,0-4v-1.2c0-0.6,0-1.3-0.1-2.2v-4.5
			c0-14.4,2.9-21.6,8.7-21.6c3,0,5.3,1.7,6.8,5.2c1.3,2.8,1.9,5.9,1.8,8.9C44.7,23.5,43.1,28.6,40.1,32.8z"/>
		<path class="st0" d="M78.2,29.5h-2.3v-2h2.3V21c0-3.2,1.6-4.5,3.9-4.5c1.4-0.1,2.8,0.6,3.6,1.7l-1.6,1.4c-0.4-0.6-1.1-1-1.8-1
			c-1,0-1.7,0.6-1.7,2.4v6.4h3.8v2h-3.8v12.2h-2.4V29.5z"/>
		<path class="st0" d="M96.6,33c0-2.7-1.2-3.8-3.3-3.8c-1.6-0.1-3.2,0.7-4.1,2l-1.5-1.3c1.3-1.8,3.5-2.8,5.8-2.7
			c3.1,0,5.6,1.8,5.6,5.7v8.7h-2.4l0.1-2.1c-1,1.6-2.8,2.5-4.7,2.4c-3,0-5.2-1.4-5.2-4.3s2.4-4.3,5.4-4.3h4.4L96.6,33z M92.3,35.2
			c-1.8,0-3.2,0.7-3.2,2.4s1.2,2.5,3.4,2.5s4-1.2,4-3v-1.9L92.3,35.2z"/>
		<path class="st0" d="M103.9,27.5h2.4l-0.1,2.9c0.9-2,2.9-3.3,5.1-3.2c3.2,0,5.3,2.1,5.3,5.8v8.6h-2.4v-8.3c0-2.5-1.2-3.9-3.5-3.9
			c-2.3-0.2-4.3,1.6-4.4,3.9c0,0.2,0,0.4,0,0.6v7.8h-2.4V27.5z"/>
		<path class="st0" d="M121.1,21.7c0-0.9,0.8-1.7,1.7-1.7c0.9,0,1.7,0.8,1.7,1.7c0,0,0,0,0,0c0,0.9-0.8,1.7-1.7,1.7
			C121.8,23.4,121.1,22.6,121.1,21.7z M121.6,27.5h2.4v14.1h-2.4L121.6,27.5z"/>
		<path class="st0" d="M139.5,38.6l0.1,3h-2.4V16.9h2.4v13.4c1-2,3.1-3.3,5.4-3.2c3.9,0,6.8,3.1,6.8,7.3s-3,7.4-6.9,7.4
			C142.7,41.9,140.5,40.6,139.5,38.6z M149.4,34.5c0-3-1.9-5.2-4.9-5.2c-2.7-0.1-4.9,2.1-5,4.8c0,0.2,0,0.3,0,0.5c0,3.1,2,5.3,5,5.3
			S149.4,37.6,149.4,34.5z"/>
		<path class="st0" d="M164.8,33c0-2.7-1.2-3.8-3.3-3.8c-1.6-0.1-3.2,0.7-4.1,2l-1.5-1.3c1.3-1.8,3.5-2.8,5.8-2.7
			c3.1,0,5.5,1.8,5.5,5.8v8.6h-2.4l0.1-2.1c-1,1.6-2.8,2.5-4.7,2.4c-3,0-5.2-1.4-5.2-4.3s2.4-4.3,5.4-4.3h4.4V33z M160.6,35.2
			c-1.8,0-3.2,0.7-3.2,2.4s1.2,2.5,3.4,2.5s4-1.2,4-3v-1.9L160.6,35.2z"/>
		<path class="st0" d="M172.8,37.3v-7.9h-2.2v-2h2.2v-7.4h2.4v7.4h4v2h-4v7.9c0,1.9,0.6,2.5,1.7,2.5c0.7,0,1.4-0.3,1.9-0.8l1.3,1.5
			c-0.9,0.9-2.2,1.4-3.4,1.4C174.4,41.9,172.8,40.7,172.8,37.3z"/>
		<path class="st0" d="M182,41.3l8.2-11.8h-7.3v-2H194v0.4l-8.2,11.8h8.1v2H182V41.3z"/>
		<path class="st0" d="M206.4,33c0-2.7-1.2-3.8-3.3-3.8c-1.6-0.1-3.2,0.7-4.1,2l-1.5-1.3c1.3-1.8,3.5-2.8,5.8-2.7
			c3.1,0,5.5,1.8,5.5,5.8v8.7h-2.4l0.1-2.1c-1,1.6-2.8,2.5-4.7,2.4c-3,0-5.2-1.4-5.2-4.3s2.4-4.3,5.4-4.3h4.4L206.4,33z M202.2,35.2
			c-1.8,0-3.2,0.7-3.2,2.4s1.2,2.5,3.4,2.5s4-1.2,4-3v-1.9L202.2,35.2z"/>
		<path class="st0" d="M216.1,41.6h-2.4V16.9h2.4v15.8c0,0.7-0.1,1.3-0.2,2l6.7-7.3h2.8l-5.5,6l6.3,8.2h-2.8l-5.1-6.6l-2.2,2.3V41.6
			z"/>
		<path class="st0" d="M229.1,21.7c-0.1-0.9,0.6-1.8,1.6-1.8s1.8,0.6,1.8,1.6c0,0.1,0,0.2,0,0.3c-0.1,0.9-0.9,1.6-1.8,1.6
			C229.9,23.2,229.2,22.5,229.1,21.7z M229.6,27.5h2.4v14.1h-2.4L229.6,27.5z"/>
		<path class="st0" d="M245.1,27.2h3.1c5,0,7.9,2.8,7.9,7.2s-2.9,7.2-7.9,7.2h-3.1V27.2z M248.1,40.8c4.8,0,7-2.6,7-6.4
			s-2.3-6.4-7-6.4H246v12.8H248.1z"/>
		<path class="st0" d="M259.4,27.2h8.4V28h-7.5v7.7h6.7v0.8h-6.7v4.4h7.8v0.8h-8.7L259.4,27.2z"/>
		<path class="st0" d="M270.1,38.9l0.7-0.4c0.7,1.6,2.3,2.5,4.1,2.5c1.9,0,3.4-1.1,3.4-2.9s-0.9-2.6-2.9-3.5l-1.3-0.6
			c-2-0.9-3-1.9-3-3.7c0-1.8,1.5-3.2,3.3-3.2c0.1,0,0.2,0,0.3,0c1.5,0,2.9,0.8,3.7,2.1l-0.7,0.4c-0.6-1.1-1.7-1.8-3-1.8
			c-1.3-0.2-2.5,0.8-2.7,2.1c0,0.1,0,0.2,0,0.4c0,1.4,0.7,2.1,2.5,2.9l1.3,0.6c2.3,1.1,3.4,2.3,3.4,4.3c0,2.2-1.8,3.7-4.2,3.7
			C272.9,41.9,271,40.8,270.1,38.9z"/>
		<path class="st0" d="M282.7,27.2h0.9v14.3h-0.9V27.2z"/>
		<path class="st0" d="M287,34.4c-0.1-4,3.1-7.3,7-7.3c0.1,0,0.3,0,0.4,0c1.8-0.1,3.6,0.6,4.9,1.8l-0.6,0.6
			c-1.2-1.1-2.7-1.7-4.3-1.6c-3.5-0.1-6.4,2.7-6.5,6.2c0,0.1,0,0.2,0,0.3c-0.1,3.5,2.7,6.5,6.2,6.6c0.1,0,0.2,0,0.3,0
			c1.8,0.1,3.6-0.5,4.9-1.7V36h-4.6v-0.8h5.5v4.4c-1.5,1.5-3.6,2.2-5.7,2.1c-4,0.1-7.3-3-7.4-7C287,34.7,287,34.6,287,34.4z"/>
		<path class="st0" d="M305.1,29.9c-0.3-0.4-0.6-1-0.6-1s0.1,0.6,0.1,1.1v11.6h-0.8V27.1h0.3l9.2,11.9c0.3,0.4,0.7,1,0.7,1
			s-0.1-0.7-0.1-1.1V27.2h0.8v14.5h-0.3L305.1,29.9z"/>
		<path class="st0" d="M322.7,38.9l0.7-0.4c0.7,1.6,2.3,2.5,4,2.5c1.9,0,3.4-1.1,3.4-2.9s-0.8-2.6-2.8-3.5l-1.4-0.6
			c-2-0.9-3-1.9-3-3.7c0-1.8,1.5-3.2,3.3-3.2c0.1,0,0.2,0,0.3,0c1.5,0,2.9,0.8,3.7,2.1l-0.7,0.4c-0.6-1.1-1.7-1.8-3-1.8
			c-1.3-0.2-2.5,0.8-2.7,2.1c0,0.1,0,0.2,0,0.4c0,1.4,0.7,2.1,2.5,2.9l1.3,0.6c2.3,1.1,3.4,2.3,3.4,4.3c0,2.2-1.8,3.7-4.2,3.7
			C325.4,41.9,323.5,40.8,322.7,38.9z"/>
		<path class="st0" d="M338,28h-4.6v-0.8h10V28h-4.5v13.6H338V28z"/>
		<path class="st0" d="M346.1,36.8v-9.6h0.9v9.5c0,2.8,1.6,4.2,4,4.2s4-1.5,4-4.2v-9.5h0.9v9.6c0,2.7-2.2,4.8-4.8,4.8
			C348.4,41.7,346.2,39.5,346.1,36.8C346.2,36.8,346.2,36.8,346.1,36.8L346.1,36.8z"/>
		<path class="st0" d="M360,27.2h3c5,0,7.9,2.8,7.9,7.2s-2.9,7.2-7.9,7.2h-3V27.2z M363,40.8c4.7,0,7-2.6,7-6.4s-2.3-6.4-7-6.4h-2.1
			v12.8H363z"/>
		<path class="st0" d="M374.4,27.2h0.9v14.3h-0.9V27.2z"/>
		<path class="st0" d="M378.7,34.4c0.1-4.1,3.6-7.2,7.6-7.1c3.8,0.1,6.9,3.2,7.1,7.1c0.1,4.1-3,7.5-7.1,7.6s-7.5-3-7.6-7.1
			C378.7,34.8,378.7,34.6,378.7,34.4z M392.5,34.4c0.1-3.6-2.6-6.6-6.2-6.7c-3.6-0.1-6.6,2.6-6.7,6.2c0,0.2,0,0.3,0,0.5
			c-0.1,3.6,2.6,6.6,6.2,6.7c3.6,0.1,6.6-2.6,6.7-6.2C392.5,34.8,392.5,34.6,392.5,34.4z"/>
	</g>
</g>
</svg>
