<svg xmlns="http://www.w3.org/2000/svg" viewBox="0 0 66.74 66.74"><defs><style>.cls-1{fill:#6bcdb2;}.cls-2{fill:#feffff;}</style></defs><g id="Layer_2" data-name="Layer 2"><g id="Layer_1-2" data-name="Layer 1"><circle class="cls-1" cx="33.37" cy="33.37" r="33.37"/><path class="cls-2" d="M40.8,14.6c-4.14,0-7,2.15-8.64,6.45q-1.9,4.54-1.9,13.42c0,1.32.08,3.19.23,5.61.05,1.12.07,2.05.07,2.81v1.82A13.48,13.48,0,0,1,25.9,44a10.75,10.75,0,0,1-3.6-2.12A9.18,9.18,0,0,1,20,38.45a11.58,11.58,0,0,1-.84-4.51q0-10.54,7.89-13.57a10.31,10.31,0,0,0,.91-3.87c0-1.37-.56-2.05-1.67-2.05q-5.23,0-9.17,6.45A21.19,21.19,0,0,0,13.5,32q0,13.35,16.76,15.25-.07,1.29-.76,5.61c-.25,1.16-.44,2.2-.57,3.11a18.81,18.81,0,0,0-.18,2.43c0,2.37,1.18,3.56,3.56,3.56q2.88,0,2.88-3.64a37.54,37.54,0,0,0-.61-5.69q-.53-3.72-.6-5.46,8.49-.68,13.57-4.93,5.69-4.77,5.69-13a16,16,0,0,0-3.26-10A11,11,0,0,0,40.8,14.6ZM43.46,39A15.14,15.14,0,0,1,34,44.86c0-.61-.09-1.35-.12-2.24s0-1.88,0-3v-.87c0-.43,0-1-.08-1.63V33.79q0-16.15,6.52-16.15,3.42,0,5.08,3.86a15.79,15.79,0,0,1,1.37,6.68A17.61,17.61,0,0,1,43.46,39Z"/></g></g></svg>