<svg xmlns="http://www.w3.org/2000/svg" viewBox="0 0 869.92 140.4"><defs><style>.cls-1{fill:#6bcdb2;}.cls-2{font-size:75.31px;fill:#323e48;font-family:NeutrafaceTextGreek-Book, Neutraface Text Greek;}.cls-3{letter-spacing:-0.01em;}.cls-4{letter-spacing:0em;}.cls-5,.cls-6,.cls-7,.cls-8{font-family:NeutrafaceTextGreek-Light, Neutraface Text Greek;font-weight:300;}.cls-6,.cls-7,.cls-8{font-size:46.53px;}.cls-7{letter-spacing:-0.01em;}.cls-8{letter-spacing:0em;}</style></defs><g id="Layer_2" data-name="Layer 2"><g id="Layer_1-2" data-name="Layer 1"><path class="cls-1" d="M80.61.45q-18.36,0-25.52,19-5.61,13.44-5.6,39.63,0,5.83.67,16.58c.14,3.28.22,6,.22,8.28v5.37A39.94,39.94,0,0,1,36.61,87.1,32,32,0,0,1,26,80.83a27.16,27.16,0,0,1-6.94-10,34.48,34.48,0,0,1-2.46-13.32q0-31.12,23.29-40.09A30.5,30.5,0,0,0,42.55,6.05c0-4-1.65-6-4.93-6Q22.17,0,10.52,19,0,36.06,0,52,0,91.37,49.49,97q-.23,3.81-2.24,16.57-1.12,5.14-1.68,9.18a51.62,51.62,0,0,0-.56,7.16q0,10.53,10.52,10.53,8.5,0,8.51-10.75a113.24,113.24,0,0,0-1.79-16.79q-1.57-11-1.79-16.13,25.08-2,40.08-14.55,16.8-14.12,16.8-38.29,0-17-9.64-29.56Q97.19.46,80.61.45Zm7.84,71.88q-10.31,13.88-28,17.46-.23-2.69-.33-6.6c-.08-2.62-.12-5.56-.12-8.85V71.76c0-1.26-.08-2.87-.22-4.81V57.1Q59.79,9.4,79,9.4q10.08,0,15,11.42a46.66,46.66,0,0,1,4,19.71Q98.08,59.34,88.45,72.33Z"/><text class="cls-2" transform="translate(164.82 91.71)"><tspan class="cls-3">f</tspan><tspan x="23.2" y="0">ani b</tspan><tspan class="cls-4" x="173.59" y="0">a</tspan><tspan x="208.69" y="0">tzaki</tspan><tspan class="cls-5" x="352.46" y="0"> </tspan><tspan class="cls-6" x="370.83" y="0">DESIGN </tspan><tspan class="cls-7" x="544.85" y="0">S</tspan><tspan class="cls-8" x="568.67" y="0">TUDIO</tspan></text></g></g></svg>